<?xml version="1.0" standalone="no"?>
<!DOCTYPE svg PUBLIC "-//W3C//DTD SVG 20010904//EN"
 "http://www.w3.org/TR/2001/REC-SVG-20010904/DTD/svg10.dtd">
<svg version="1.0" xmlns="http://www.w3.org/2000/svg"
 width="573.000000pt" height="435.000000pt" viewBox="0 0 573.000000 435.000000"
 preserveAspectRatio="xMidYMid meet">

<g transform="translate(0.000000,435.000000) scale(0.100000,-0.100000)"
fill="#000000" stroke="none">
<path d="M2992 3427 c-7 -8 -6 -20 3 -37 8 -14 14 -39 15 -56 0 -38 4 -42 35
-36 21 4 25 10 25 41 0 20 6 46 14 57 10 13 11 25 5 35 -5 8 -9 10 -9 4 0 -11
-50 -12 -67 -2 -6 4 -15 1 -21 -6z"/>
<path d="M2508 3234 c-20 -9 -47 -31 -60 -52 -31 -46 -276 -476 -284 -497 -5
-12 2 -15 34 -15 l41 0 119 208 c142 244 167 283 193 289 33 9 39 84 7 82 -7
0 -29 -7 -50 -15z"/>
<path d="M2764 3236 c-3 -8 -4 -23 -2 -33 3 -16 20 -18 203 -23 132 -3 207 -9
222 -17 22 -13 25 -17 118 -178 32 -55 70 -120 85 -145 15 -25 43 -73 61 -107
33 -63 33 -63 77 -63 53 0 54 -6 -24 127 -32 54 -88 151 -126 217 -98 169
-119 199 -158 218 -30 15 -65 18 -243 18 -172 0 -209 -3 -213 -14z"/>
<path d="M2660 3165 c0 -28 3 -32 20 -28 11 3 23 9 25 13 9 14 -6 38 -26 43
-16 4 -19 0 -19 -28z"/>
<path d="M3094 3115 c15 -8 32 -12 37 -9 5 3 9 0 9 -7 0 -7 3 -10 6 -6 4 3 13
0 21 -8 24 -24 35 -17 16 9 -20 27 -42 36 -88 36 l-30 0 29 -15z"/>
<path d="M2540 3098 c-5 -13 -17 -34 -26 -48 -10 -15 -2 -10 20 12 36 38 45
58 26 58 -6 0 -15 -10 -20 -22z"/>
<path d="M2030 2863 c0 -48 2 -54 15 -43 8 7 47 15 86 18 56 4 72 9 80 25 16
28 -3 36 -67 30 -36 -4 -61 -1 -83 10 l-31 15 0 -55z"/>
<path d="M3680 2910 c-8 -5 -49 -10 -91 -10 -42 0 -78 -2 -81 -5 -3 -4 -1 -17
6 -30 11 -25 15 -26 106 -29 19 -1 45 -7 56 -14 21 -11 21 -10 21 43 -1 30 -1
55 -2 55 0 0 -7 -5 -15 -10z"/>
<path d="M2245 2607 c8 -4 13 -12 10 -18 -4 -5 3 -9 13 -9 11 0 22 9 25 19 4
16 -1 19 -29 18 -25 -1 -30 -3 -19 -10z"/>
<path d="M3432 2602 c5 -24 48 -29 48 -5 0 13 -8 19 -26 21 -19 1 -25 -2 -22
-16z"/>
<path d="M2166 2508 c7 -24 103 -199 113 -208 4 -3 18 -27 33 -55 51 -94 127
-220 152 -251 39 -48 83 -56 295 -53 102 1 192 6 199 12 13 11 16 53 4 61 -5
3 -88 6 -185 7 -249 3 -242 1 -288 78 -22 34 -39 65 -39 67 0 1 -26 47 -58
101 -32 54 -80 135 -106 181 -47 81 -48 82 -88 82 -36 0 -39 -2 -32 -22z"/>
<path d="M3498 2523 c-10 -2 -34 -34 -55 -71 -70 -127 -217 -377 -232 -396 -9
-10 -26 -22 -38 -27 -24 -9 -31 -50 -14 -77 11 -19 67 6 102 44 24 27 89 128
89 139 0 3 11 22 24 43 65 103 186 321 186 335 0 17 -23 20 -62 10z"/>
<path d="M2029 2385 c0 -5 0 -30 1 -55 2 -46 9 -65 17 -42 3 8 30 12 87 12 46
0 85 3 89 6 3 4 -1 17 -9 29 -13 20 -25 23 -90 27 -52 2 -78 8 -84 18 -5 8
-10 11 -11 5z"/>
<path d="M3676 2375 c-13 -10 -43 -15 -82 -15 -54 0 -64 -3 -77 -24 -9 -13
-13 -26 -10 -30 4 -3 40 -6 80 -6 41 0 82 -4 92 -9 16 -9 18 -4 17 45 0 30 -1
54 -1 54 0 0 -9 -7 -19 -15z"/>
<path d="M2520 2146 c0 -17 32 -66 43 -66 6 0 23 -3 37 -6 l25 -6 -25 21 c-14
11 -29 21 -34 21 -5 0 -17 10 -27 22 -11 11 -19 18 -19 14z"/>
<path d="M3172 2118 c-6 -6 -12 -19 -12 -27 0 -13 2 -13 16 1 9 9 15 21 13 27
-3 9 -8 8 -17 -1z"/>
<path d="M3035 2056 c-17 -9 -21 -21 -22 -66 -1 -46 0 -49 6 -20 4 20 12 34
19 33 7 -2 13 5 13 15 1 9 5 -1 9 -23 l7 -40 2 52 c1 57 -4 65 -34 49z"/>
<path d="M2660 1870 c0 -23 -7 -52 -16 -65 -22 -33 -13 -41 43 -39 44 2 48 4
45 26 -14 110 -18 118 -54 118 -14 0 -18 -9 -18 -40z"/>
<path d="M725 975 c0 -13 3 -21 8 -18 4 2 7 10 7 18 0 8 -3 16 -7 18 -5 3 -8
-5 -8 -18z"/>
<path d="M1035 985 c-3 -8 -7 -22 -10 -31 -3 -8 -9 -12 -15 -9 -5 3 -10 -1
-10 -9 0 -24 15 -19 30 9 7 14 17 25 22 25 4 0 8 7 8 15 0 8 -5 15 -10 15 -6
0 -13 -7 -15 -15z"/>
<path d="M1396 987 c3 -9 1 -23 -4 -30 -6 -7 -7 -19 -3 -26 6 -8 10 -2 15 20
3 19 2 37 -4 43 -8 8 -9 6 -4 -7z"/>
<path d="M4446 993 c-11 -11 -6 -23 9 -23 8 0 15 4 15 9 0 13 -16 22 -24 14z"/>
<path d="M4607 993 c-13 -13 -7 -33 11 -33 13 0 14 2 3 9 -7 5 -10 14 -7 20 8
12 3 15 -7 4z"/>
<path d="M4840 979 c-16 -28 11 -69 45 -69 24 0 51 31 38 44 -12 11 -21 6 -19
-11 2 -29 -48 -24 -52 5 -2 13 2 30 8 38 9 9 9 14 2 14 -6 0 -16 -9 -22 -21z"/>
<path d="M5185 990 c4 -6 11 -8 16 -5 14 9 11 15 -7 15 -8 0 -12 -5 -9 -10z"/>
<path d="M5310 980 c0 -11 4 -20 8 -20 4 0 8 9 8 20 0 11 -4 20 -8 20 -4 0 -8
-9 -8 -20z"/>
<path d="M490 972 c0 -10 7 -19 15 -19 17 0 17 0 9 21 -8 22 -24 20 -24 -2z"/>
<path d="M571 976 c-8 -9 -11 -19 -7 -23 9 -9 29 13 24 27 -2 8 -8 7 -17 -4z"/>
<path d="M1580 980 c0 -5 5 -10 11 -10 5 0 7 5 4 10 -3 6 -8 10 -11 10 -2 0
-4 -4 -4 -10z"/>
<path d="M2045 980 c-3 -5 -1 -10 4 -10 6 0 11 5 11 10 0 6 -2 10 -4 10 -3 0
-8 -4 -11 -10z"/>
<path d="M2931 974 c0 -11 3 -14 6 -6 3 7 2 16 -1 19 -3 4 -6 -2 -5 -13z"/>
<path d="M4512 973 c-1 -14 -9 -23 -19 -23 -16 0 -16 -1 0 -17 22 -22 29 -13
24 29 -2 19 -4 23 -5 11z"/>
<path d="M4753 955 c0 -22 2 -30 4 -17 2 12 2 30 0 40 -3 9 -5 -1 -4 -23z"/>
<path d="M5066 974 c-3 -9 -2 -23 4 -32 7 -14 9 -10 10 16 0 35 -5 41 -14 16z"/>
<path d="M1340 956 c0 -22 3 -27 11 -19 8 8 8 16 0 30 -9 16 -10 14 -11 -11z"/>
<path d="M5000 955 c0 -15 4 -24 10 -20 6 3 10 12 10 20 0 8 -4 17 -10 20 -6
4 -10 -5 -10 -20z"/>
<path d="M351 954 c0 -11 3 -14 6 -6 3 7 2 16 -1 19 -3 4 -6 -2 -5 -13z"/>
<path d="M664 959 c-3 -6 -1 -16 5 -22 8 -8 11 -5 11 11 0 24 -5 28 -16 11z"/>
<path d="M5192 945 c0 -16 2 -22 5 -12 2 9 2 23 0 30 -3 6 -5 -1 -5 -18z"/>
<path d="M1083 944 c-15 -16 -16 -24 -4 -24 8 0 24 30 19 35 -2 2 -9 -3 -15
-11z"/>
<path d="M1801 944 c0 -11 3 -14 6 -6 3 7 2 16 -1 19 -3 4 -6 -2 -5 -13z"/>
<path d="M2780 949 c0 -5 5 -7 10 -4 6 3 10 8 10 11 0 2 -4 4 -10 4 -5 0 -10
-5 -10 -11z"/>
<path d="M4662 940 c0 -14 2 -19 5 -12 2 6 2 18 0 25 -3 6 -5 1 -5 -13z"/>
<path d="M1636 941 c-4 -7 -5 -15 -2 -18 9 -9 19 4 14 18 -4 11 -6 11 -12 0z"/>
<path d="M2685 930 c3 -5 8 -10 11 -10 2 0 4 5 4 10 0 6 -5 10 -11 10 -5 0 -7
-4 -4 -10z"/>
<path d="M5310 920 c0 -5 5 -10 11 -10 5 0 7 5 4 10 -3 6 -8 10 -11 10 -2 0
-4 -4 -4 -10z"/>
</g>
</svg>
